<svg width="384" height="384" viewBox="0 0 384 384" fill="none" xmlns="http://www.w3.org/2000/svg">
<path d="M352 0H32C14.3 0 0 14.3 0 32V352C0 369.7 14.3 384 32 384H352C369.7 384 384 369.7 384 352V32C384 14.3 369.7 0 352 0ZM299.5 134.5L165.8 268.8H165.7C164 270.5 159.4 274.3 154.1 274.3C150.3 274.3 146 272.2 142.4 268.6L86.4 212.6C84.8 211 84.8 208.5 86.4 206.9L104.2 189.1C105 188.3 106 187.9 107 187.9C108 187.9 109 188.3 109.8 189.1L154.2 233.5L276.2 110.6C277 109.8 278 109.4 279 109.4C280.1 109.4 281.1 109.8 281.8 110.6L299.3 128.7C301.1 130.4 301.1 132.9 299.5 134.5V134.5Z" fill="#EF4444"/>
</svg>
