<svg width="195" height="216" viewBox="0 0 195 216" fill="none" xmlns="http://www.w3.org/2000/svg">
<rect width="195" height="216" fill="white"/>
<path fill-rule="evenodd" clip-rule="evenodd" d="M46.2637 127.207C45.0543 128.244 40.6409 131.993 27.69 142.982C22.1398 147.692 17.5183 151.63 17.4203 151.735C17.2102 151.959 17.5714 152.828 19.3318 156.33C37.8817 193.244 75.4431 212.894 113.344 205.513C129.063 202.452 144.398 194.19 155.244 182.939L155.804 182.358L149.302 176.796C145.726 173.737 139.284 168.217 134.986 164.529L127.171 157.825L125.961 158.624C115.446 165.577 99.9643 168.189 86.7867 165.234C68.8584 161.213 53.6655 146.514 47.7238 127.444C47.3323 126.187 47.4342 126.203 46.2637 127.207Z" fill="black"/>
<path fill-rule="evenodd" clip-rule="evenodd" d="M97.5 109.134V128.304H121.434H145.368L145.309 128.655C144.643 132.661 142.696 138.393 140.668 142.313C139.676 144.232 137.455 147.809 136.893 148.392C136.864 148.422 136.461 148.932 135.997 149.526C133.856 152.266 130.905 155.116 128.076 157.173C127.233 157.787 127.214 157.81 127.394 157.999C127.784 158.411 155.715 182.304 155.805 182.304C156.04 182.304 160.197 177.554 161.902 175.338C162.222 174.922 162.507 174.558 162.535 174.528C162.563 174.498 162.961 173.964 163.418 173.34C169.49 165.061 174.154 155.701 177.516 145.044C179.231 139.611 180.666 133.188 181.534 127.062C183.338 114.339 183.257 102.848 181.291 92.394C181.156 91.6812 180.999 90.8431 180.941 90.531L180.836 89.964H139.168H97.5V109.134Z" fill="black"/>
<path fill-rule="evenodd" clip-rule="evenodd" d="M16.4897 65.819C5.28548 92.6354 5.25915 123.346 16.417 150.006C16.8236 150.977 17.1751 151.792 17.1975 151.817C17.2326 151.857 22.5493 147.359 41.535 131.23C43.5996 129.476 45.7538 127.649 46.3222 127.169L47.3553 126.297L47.2202 125.816C44.5102 116.164 44.0305 105.945 45.827 96.1416C46.1302 94.4876 46.8429 91.4495 47.1846 90.3566C47.2934 90.0077 47.3626 89.6875 47.3387 89.6449C47.2836 89.5455 17.3818 64.2163 17.2716 64.1752C17.2263 64.1585 16.8743 64.8983 16.4897 65.819Z" fill="black"/>
<path fill-rule="evenodd" clip-rule="evenodd" d="M92.7713 9.08388C62.009 10.8189 34.2834 29.9165 19.3318 59.67C17.7528 62.8123 17.2185 64.0489 17.3721 64.2087C17.4432 64.2827 24.1483 69.9683 32.2725 76.8436C40.3967 83.7189 47.1154 89.4127 47.2027 89.4969C47.346 89.6351 47.3884 89.5676 47.6327 88.8079C55.4078 64.6418 75.6 49.0871 98.5238 49.6049C110.281 49.8706 120.319 53.939 130.205 62.4451C130.415 62.6254 130.568 62.4618 143.461 48.1793L156.504 33.7311L155.106 32.4362C137.28 15.9165 115.603 7.79652 92.7713 9.08388Z" fill="black"/>
</svg>
