<svg width="270" height="301" viewBox="0 0 270 301" fill="none" xmlns="http://www.w3.org/2000/svg">
<path d="M130.425 166.235C127.334 168.399 123.052 166.491 122.594 162.746L108.291 45.8401C107.805 41.866 111.954 38.9608 115.522 40.7769L220.487 94.2011C223.849 95.9125 224.177 100.589 221.087 102.753L130.425 166.235Z" fill="#FDE68A" stroke="#FDE68A"/>
<path d="M166.113 293.153C162.694 294.747 158.808 292.125 159.007 288.357L165.223 170.744C165.434 166.746 170.025 164.605 173.223 167.013L267.315 237.853C270.329 240.122 269.84 244.784 266.421 246.379L166.113 293.153Z" fill="#F9A8D4" stroke="#F9A8D4"/>
<path d="M5.7547 233.977C2.11076 233.001 0.819362 228.494 3.3939 225.736L83.7556 139.634C86.4875 136.707 91.3799 138.018 92.2823 141.918L118.826 256.666C119.677 260.342 116.305 263.599 112.661 262.623L5.7547 233.977Z" fill="#5EEAD4" stroke="#5EEAD4"/>
</svg>
