<svg id="svg" version="1.1" xmlns="http://www.w3.org/2000/svg" xmlns:xlink="http://www.w3.org/1999/xlink" width="400" height="400" viewBox="0, 0, 400,400"><g id="svgg"><path id="path0" d="M94.900 235.569 C 92.419 237.489,83.366 244.431,56.800 264.781 C 45.415 273.503,35.935 280.797,35.734 280.991 C 35.303 281.405,36.044 283.014,39.655 289.500 C 77.706 357.859,154.755 394.249,232.500 380.580 C 264.745 374.911,296.201 359.612,318.449 338.776 L 319.597 337.700 306.261 327.400 C 298.926 321.735,285.711 311.513,276.894 304.684 L 260.863 292.268 258.381 293.749 C 236.813 306.625,205.055 311.462,178.024 305.988 C 141.248 298.542,110.083 271.323,97.895 236.007 C 97.092 233.679,97.301 233.710,94.900 235.569 " stroke="none" fill="#34ab54" fill-rule="evenodd"></path><path id="path1" d="M200.000 202.100 L 200.000 237.600 249.095 237.600 L 298.190 237.600 298.070 238.250 C 296.704 245.668,292.709 256.283,288.550 263.542 C 286.514 267.097,281.958 273.720,280.806 274.800 C 280.747 274.855,279.920 275.800,278.969 276.900 C 274.577 281.975,268.523 287.252,262.721 291.062 C 260.990 292.199,260.952 292.240,261.321 292.591 C 262.122 293.353,319.416 337.600,319.601 337.600 C 320.083 337.600,328.610 328.804,332.107 324.700 C 332.763 323.930,333.347 323.255,333.405 323.200 C 333.463 323.145,334.278 322.155,335.216 321.000 C 347.672 305.669,357.238 288.335,364.136 268.600 C 367.653 258.538,370.597 246.645,372.378 235.300 C 376.077 211.738,375.912 190.460,371.878 171.100 C 371.603 169.780,371.281 168.228,371.162 167.650 L 370.945 166.600 285.472 166.600 L 200.000 166.600 200.000 202.100 " stroke="none" fill="#4484f3" fill-rule="evenodd"></path><path id="path2" d="M33.825 121.887 C 10.842 171.547,10.788 228.418,33.676 277.788 C 34.510 279.587,35.231 281.097,35.277 281.143 C 35.349 281.216,46.255 272.887,85.200 243.019 C 89.435 239.771,93.854 236.387,95.020 235.498 L 97.139 233.883 96.862 232.992 C 91.303 215.118,90.319 196.194,94.004 178.040 C 94.626 174.977,96.088 169.351,96.789 167.327 C 97.012 166.681,97.154 166.088,97.105 166.009 C 96.992 165.825,35.655 118.919,35.429 118.843 C 35.336 118.812,34.614 120.182,33.825 121.887 " stroke="none" fill="#fbbb04" fill-rule="evenodd"></path><path id="path3" d="M190.300 16.822 C 127.198 20.035,70.325 55.401,39.655 110.500 C 36.416 116.319,35.320 118.609,35.635 118.905 C 35.781 119.042,49.535 129.571,66.200 142.303 C 82.865 155.035,96.647 165.579,96.826 165.735 C 97.120 165.991,97.207 165.866,97.708 164.459 C 113.657 119.707,155.077 90.902,202.100 91.861 C 226.217 92.353,246.808 99.887,267.087 115.639 C 267.518 115.973,267.831 115.670,294.279 89.221 L 321.034 62.465 318.167 60.067 C 281.599 29.475,237.134 14.438,190.300 16.822 " stroke="none" fill="#ec4434" fill-rule="evenodd"></path></g></svg>