<svg width="322" height="319" viewBox="0 0 322 319" fill="none" xmlns="http://www.w3.org/2000/svg">
<rect width="322" height="319" fill="#FCA5A5"/>
<g clip-path="url(#clip0_0_1)">
<rect width="322" height="319" fill="#FCA5A5"/>
<path d="M322 0H0V319H322V0Z" fill="#FEF2F2"/>
<path d="M308.316 33.2509C234.877 -13.4979 124.54 -10.9656 55.1536 40.9316C-14.2254 92.8294 -17.6112 175.346 44.8913 230.279L308.316 33.2509Z" fill="url(#paint0_linear_0_1)"/>
<path d="M55.1536 40.9317C-14.2254 92.8294 -17.6112 175.346 44.8913 230.279L308.316 33.2509" fill="url(#paint1_linear_0_1)"/>
<path d="M277.107 88.7126L13.6832 285.74C87.1282 332.499 197.452 329.966 266.838 278.069C336.225 226.171 339.616 143.656 277.107 88.7126Z" fill="#FCA5A5"/>
<path d="M266.838 278.069C336.225 226.172 339.616 143.656 277.107 88.7126L13.6832 285.74" fill="#FCA5A5"/>
</g>
<defs>
<linearGradient id="paint0_linear_0_1" x1="262.343" y1="-23.1902" x2="57.8648" y2="250.193" gradientUnits="userSpaceOnUse">
<stop offset="0.012" stop-color="#1E3A8A"/>
<stop offset="0.326042" stop-color="#1E3A8A"/>
<stop offset="1" stop-color="#1E3A8A"/>
</linearGradient>
<linearGradient id="paint1_linear_0_1" x1="185.2" y1="180.865" x2="140.365" y2="-40.1351" gradientUnits="userSpaceOnUse">
<stop stop-color="#1E3A8A"/>
<stop offset="0.221875" stop-color="#1E3A8A"/>
<stop offset="0.534375" stop-color="#1E3A8A"/>
</linearGradient>
<clipPath id="clip0_0_1">
<rect width="322" height="319" fill="white"/>
</clipPath>
</defs>
</svg>
