<svg width="482" height="384" viewBox="0 0 482 384" fill="none" xmlns="http://www.w3.org/2000/svg">
<rect width="482" height="384" fill="#FCA5A5"/>
<path d="M479.218 73.8247C476.459 70.4938 472.019 68.435 467.197 68.2615L168.208 57.4058C159.629 57.0896 152.46 62.6683 152.094 69.8606C151.729 77.0501 158.341 83.1249 166.879 83.4338L445.626 93.5553L390.818 237.596H146.918L102.854 35.5C101.885 31.0707 98.2751 27.3755 93.2961 25.7301L21.1265 1.84817C13.1725 -0.774888 4.19705 2.51598 1.07326 9.20764C-2.04513 15.9029 1.86068 23.4677 9.81036 26.099L73.9806 47.3333L118.822 252.976C120.174 259.158 126.57 263.648 134.036 263.648H141.474L124.489 303.389C123.067 306.718 123.653 310.415 126.072 313.307C128.488 316.2 132.418 317.921 136.613 317.921H148.526C141.144 324.842 136.613 333.954 136.613 343.974C136.613 365.524 157.43 383.054 183.008 383.054C208.586 383.054 229.403 365.524 229.403 343.974C229.403 333.955 224.871 324.842 217.49 317.921H318.643C311.258 324.842 306.727 333.954 306.727 343.974C306.727 365.524 327.539 383.054 353.122 383.054C378.707 383.054 399.517 365.524 399.517 343.974C399.517 333.955 394.987 324.842 387.607 317.921H402.095C409.215 317.921 414.983 313.061 414.983 307.066C414.983 301.07 409.213 296.21 402.095 296.21H154.95L168.867 263.644H402.094C408.82 263.644 414.771 259.985 416.819 254.595L481.257 85.2482C482.737 81.3831 481.977 77.1573 479.218 73.8247ZM183.009 361.347C171.637 361.347 162.388 353.558 162.388 343.979C162.388 334.4 171.637 326.61 183.009 326.61C194.381 326.61 203.628 334.4 203.628 343.979C203.628 353.558 194.381 361.347 183.009 361.347ZM353.122 361.347C341.75 361.347 332.503 353.558 332.503 343.979C332.503 334.4 341.75 326.61 353.122 326.61C364.495 326.61 373.742 334.4 373.742 343.979C373.742 353.558 364.495 361.347 353.122 361.347Z" fill="white"/>
</svg>
