<svg width="252" height="296" viewBox="0 0 252 296" fill="none" xmlns="http://www.w3.org/2000/svg">
<path fill-rule="evenodd" clip-rule="evenodd" d="M101.681 2.0847C101.155 2.50806 100.843 3.2673 100.866 4.0665C100.902 5.33334 101.373 6.39822 105.412 14.36C106.496 16.4984 108.984 21.4556 110.941 25.376C112.897 29.2964 115.149 33.7676 115.945 35.312C116.742 36.8564 118.619 40.6472 120.116 43.736C123.323 50.351 124.566 52.1621 125.891 52.1535C127.672 52.1405 127.838 51.9429 130.482 46.6552C131.285 45.0493 132.15 43.3472 132.406 42.872C132.66 42.3968 133.521 40.6472 134.319 38.984C135.116 37.3208 136.174 35.1824 136.67 34.232C137.826 32.018 141.865 24.0659 142.266 23.216C142.434 22.8596 142.981 21.7904 143.482 20.84C150.006 8.46102 151.892 3.32886 150.374 2.0793C149.302 1.19478 102.78 1.20126 101.681 2.0847ZM123.292 63.0485C122.501 63.905 119.939 67.5975 118.583 69.8342C118.343 70.2295 117.368 71.7112 116.414 73.1282C115.46 74.5451 114.384 76.2418 114.022 76.8995C113.659 77.5573 112.421 79.5013 111.269 81.2195C107.512 86.8258 103.26 93.4678 100.476 98.0794C99.2228 100.153 98.8792 101.238 99.6198 100.785C99.8362 100.652 99.9069 100.948 99.7774 101.443C99.6143 102.06 99.2881 102.276 98.7345 102.133C97.6601 101.853 97.7754 104.5 98.8563 104.943C99.9765 105.401 101.4 104.853 101.4 103.963C101.4 103.416 101.614 103.245 102.079 103.422C102.529 103.593 102.837 103.378 102.994 102.781C103.124 102.285 103.7 101.575 104.273 101.202C104.846 100.829 105.315 100.253 105.315 99.923C105.315 99.5914 105.915 98.7706 106.65 98.0967C108.044 96.8191 111.203 92.2453 112.683 89.366C113.156 88.4447 113.836 87.5786 114.194 87.4425C114.552 87.3054 115.272 86.3582 115.793 85.3365C116.314 84.3159 117.303 82.7715 117.988 81.9054C118.674 81.0403 119.235 80.1406 119.235 79.9063C119.235 79.673 119.549 79.2226 119.933 78.9062C120.317 78.5908 120.812 77.9342 121.034 77.4493C121.256 76.9643 122.275 75.4016 123.298 73.976C125.727 70.5934 126.614 70.453 128.2 73.1941C128.862 74.3367 130.148 76.1738 131.06 77.2765C131.974 78.3781 132.72 79.4159 132.72 79.5812C132.72 79.7475 133.284 80.6925 133.974 81.6818C134.663 82.6711 135.955 84.5978 136.844 85.964C137.732 87.3302 138.615 88.448 138.806 88.448C138.995 88.448 139.265 88.8973 139.403 89.447C139.542 89.9956 140.138 91.0022 140.726 91.6837C141.316 92.3641 142.522 94.1504 143.406 95.6527C145.038 98.4229 145.493 98.8149 145.954 97.844C146.095 97.547 146.105 97.8483 145.977 98.5136C145.785 99.5018 145.884 99.7005 146.517 99.5936C147.116 99.4931 147.258 99.7048 147.141 100.523C147.013 101.425 147.088 101.503 147.646 101.043C148.404 100.419 149.043 101.058 148.658 102.055C148.504 102.455 148.641 102.578 149.061 102.418C149.487 102.255 149.847 102.604 150.153 103.476C150.769 105.233 154.187 106.098 154.751 104.64C155.177 103.539 154.081 101.477 153.192 101.707C152.439 101.904 151.832 100.918 151.679 99.248C151.599 98.3592 150.932 96.4875 150.603 96.224C150.07 95.7974 148.132 92.9592 147.508 91.688C146.777 90.2019 146.68 90.0507 141.919 82.9378C139.969 80.0261 138.37 77.4989 138.363 77.3218C138.357 77.1447 137.769 76.2364 137.058 75.3033C136.347 74.3702 135.765 73.4781 135.765 73.3204C135.765 73.1638 134.145 70.6226 132.165 67.6731L128.566 62.312L126.386 62.1845C124.575 62.0787 124.054 62.2245 123.292 63.0485ZM96.0125 106.08C95.832 106.369 95.5166 106.502 95.31 106.376C95.1034 106.25 94.8119 106.344 94.6618 106.584C94.5118 106.826 94.6173 107.024 94.8957 107.024C95.1751 107.024 95.2904 107.316 95.1523 107.672C95.0153 108.028 95.0914 108.32 95.3241 108.32C95.5558 108.32 95.745 108.045 95.745 107.708C95.745 107.372 95.9701 107.022 96.2452 106.93C96.5204 106.839 96.6542 106.493 96.5421 106.16C96.3888 105.702 96.2594 105.683 96.0125 106.08ZM124.416 121.481C123.796 121.821 122.238 123.713 120.952 125.685C119.667 127.658 118.147 129.844 117.577 130.543C117.007 131.243 116.363 132.215 116.146 132.703C115.931 133.192 115.02 134.687 114.124 136.024C109.755 142.539 108.137 144.982 107.004 146.768C106.326 147.837 104.784 150.17 103.577 151.952C98.8922 158.869 94.875 165.003 94.875 165.24C94.875 165.376 94.5759 165.795 94.2105 166.171C93.3188 167.089 92.0062 169.041 88.8111 174.2C87.3397 176.576 85.7813 179.006 85.3496 179.6C84.9168 180.194 83.8706 181.749 83.0234 183.056C80.7049 186.637 69.8146 203.14 67.408 206.721C66.2455 208.45 65.295 210.01 65.295 210.186C65.295 210.362 64.4163 211.667 63.3418 213.089C62.2685 214.51 61.3876 215.822 61.3843 216.007C61.38 216.317 60.3403 217.938 57.0235 222.8C52.245 229.805 49.3979 234.063 48.3963 235.702C45.919 239.75 37.6203 252.329 25.884 269.825C24.7117 271.573 23.361 273.635 22.8825 274.408C22.404 275.181 21.5731 276.474 21.0348 277.28C19.9517 278.905 19.8147 280.122 20.5378 281.7C21.3948 283.568 22.4334 283.712 35.0516 283.712H46.9619L47.8885 282.542C50.7116 278.977 47.7634 277.166 39.2494 277.235C30.0404 277.31 30.0633 277.311 29.8077 276.65C29.6837 276.33 32.1861 272.157 35.3681 267.376C38.549 262.596 41.8137 257.608 42.6217 256.294C43.4297 254.98 44.2486 253.904 44.4411 253.904C44.6336 253.904 44.9283 253.467 45.0969 252.932C45.2643 252.397 46.3236 250.591 47.4513 248.918C48.579 247.245 49.5828 245.69 49.6818 245.462C49.8862 244.993 63.1776 224.92 65.2602 221.936C66.0062 220.867 68.0083 217.854 69.7092 215.24C74.8693 207.312 79.2422 200.685 81.0148 198.107C81.9392 196.762 82.695 195.547 82.695 195.407C82.695 195.266 84.3099 192.812 86.2838 189.951C88.2576 187.091 91.2427 182.607 92.9175 179.987C94.5922 177.365 97.6133 172.756 99.6317 169.743C101.649 166.73 104.096 163.038 105.069 161.541C106.041 160.043 108.452 156.377 110.426 153.393C112.4 150.41 114.015 147.922 114.015 147.867C114.015 147.687 122.203 135.355 123.062 134.24C123.52 133.646 124.221 132.528 124.62 131.756C125.652 129.763 126.629 129.992 128.153 132.586C128.87 133.808 129.653 135.129 129.892 135.522C130.379 136.321 134.531 142.591 136.338 145.256C137.736 147.318 141.891 153.623 147.387 162.024C149.591 165.395 151.803 168.735 152.303 169.448C154.067 171.971 159.69 180.529 159.69 180.691C159.69 180.781 161.81 184.024 164.399 187.895C172.186 199.538 174.915 203.709 174.915 203.969C174.915 204.105 175.586 205.089 176.406 206.156C177.226 207.223 178.432 209.072 179.086 210.264C179.739 211.457 180.419 212.432 180.596 212.432C180.774 212.432 181.133 212.967 181.393 213.62C181.654 214.273 182.542 215.683 183.365 216.752C184.188 217.821 184.875 218.923 184.891 219.2C184.907 219.477 185.067 219.768 185.246 219.848C185.637 220.02 190.14 226.496 190.14 226.885C190.14 227.034 190.514 227.682 190.972 228.325C191.708 229.361 199.665 241.293 200.802 243.066C201.044 243.443 201.974 244.873 202.868 246.245C203.763 247.615 204.495 248.897 204.495 249.094C204.495 249.289 204.907 249.82 205.412 250.273C205.915 250.726 206.747 251.851 207.261 252.774C208.782 255.515 209.104 256.019 209.863 256.851C210.26 257.288 210.585 257.791 210.585 257.971C210.585 258.152 211.15 259.109 211.841 260.098C221.309 273.652 223.209 277.234 220.93 277.23C166.685 277.129 98.4105 277.54 97.6514 277.973C95.6743 279.098 95.9364 283.037 98.0168 283.451C98.7411 283.594 128.589 283.712 164.346 283.712H229.357L230.683 282.395C232.395 280.696 232.22 278.416 230.2 276.133C229.461 275.294 228.855 274.438 228.855 274.227C228.855 274.017 227.778 272.293 226.463 270.396C225.147 268.498 224.07 266.816 224.07 266.657C224.07 266.498 223.086 264.973 221.883 263.268C219.972 260.56 216.993 256.158 213.058 250.232C212.426 249.282 211.394 247.796 210.763 246.928C210.133 246.062 209.253 244.604 208.808 243.688C208.363 242.774 207.624 241.538 207.164 240.944C205.778 239.153 197.848 227.263 196.425 224.842C195.695 223.6 192.776 219.085 189.938 214.808C187.1 210.531 183.097 204.468 181.043 201.334C178.989 198.2 176.133 193.866 174.697 191.701C173.262 189.537 171.5 186.8 170.783 185.62C170.065 184.438 168.577 182.164 167.478 180.564C166.378 178.965 164.476 176.101 163.25 174.2C162.026 172.299 160.656 170.258 160.205 169.664C159.756 169.07 159.133 168.098 158.821 167.504C158.51 166.91 158.135 166.327 157.989 166.208C157.485 165.797 155.34 162.337 155.34 161.933C155.34 161.711 155.186 161.464 154.997 161.384C154.809 161.305 153.366 159.296 151.793 156.92C150.218 154.544 146.805 149.392 144.207 145.472C141.609 141.552 139.283 138.01 139.038 137.603C137.119 134.414 135.331 131.743 134.134 130.275C133.356 129.322 132.72 128.376 132.72 128.171C132.72 127.712 129.027 122.432 128.268 121.807C127.279 120.992 125.57 120.847 124.416 121.481ZM58.1425 267.392C57.2573 268.646 57.1148 293.127 57.987 293.994C59.0375 295.037 68.4031 291.555 73.995 288.042C74.5931 287.666 77.5794 286.101 80.6309 284.563C89.1167 280.287 89.4462 280.788 72.9075 272.836C70.515 271.686 68.2639 270.566 67.905 270.346C62.7546 267.196 59.068 266.08 58.1425 267.392Z" fill="#6AEDDA"/>
<path fill-rule="evenodd" clip-rule="evenodd" d="M87.7334 116.806C87.5833 117.197 87.5485 117.605 87.6584 117.713C88.0042 118.056 88.785 117.367 88.785 116.718C88.785 115.871 88.0716 115.931 87.7334 116.806ZM93.868 117.442C93.4341 117.692 92.9088 118.319 92.7 118.833C92.3988 119.574 92.3139 119.611 92.2922 119.012C92.2628 118.192 91.395 117.937 91.395 118.749C91.395 119.575 89.9508 120.388 88.4588 120.402C87.4855 120.412 87.045 120.214 87.045 119.768C87.045 118.347 86.0891 119.338 82.7744 124.196C73.2751 138.119 64.7415 150.746 61.7487 155.304C59.9184 158.094 55.924 164.167 52.8725 168.8C49.8221 173.433 45.533 179.946 43.3427 183.272C41.1525 186.598 37.9237 191.556 36.1696 194.288C34.4144 197.02 31.8881 200.908 30.5548 202.928C27.4554 207.621 26.6692 208.917 26.0352 210.38C25.7513 211.033 25.3903 211.568 25.2326 211.568C25.0749 211.568 24.7019 212.151 24.405 212.864C24.1081 213.577 23.6927 214.16 23.4817 214.16C23.0184 214.16 22.9652 215.433 23.4263 215.512C25.9993 215.956 28.3331 215.762 28.2232 215.114C28.1438 214.641 28.4005 214.399 28.9725 214.405C29.451 214.411 29.7936 214.649 29.7338 214.935C29.5326 215.899 30.2699 215.456 31.216 214.047C31.7315 213.278 33.6585 210.51 35.4975 207.896C38.7785 203.232 47.0163 191.034 47.4589 190.184C47.5818 189.946 51.1194 184.6 55.3183 178.304C63.6681 165.786 65.7496 162.622 71.8124 153.248C74.0407 149.803 76.6877 145.72 77.6947 144.176C81.8478 137.804 86.61 130.285 86.61 130.099C86.61 129.853 88.9003 126.327 89.2526 126.032C89.394 125.913 90.3749 124.399 91.4309 122.667C92.4879 120.934 93.7136 118.942 94.154 118.239C95.036 116.83 95.0175 116.779 93.868 117.442ZM157.515 117.582C157.515 117.687 159.066 120.165 160.962 123.09C162.858 126.015 165.625 130.352 167.11 132.728C170.707 138.48 172.679 141.571 173.585 142.88C173.996 143.474 176.059 146.682 178.169 150.008C180.28 153.334 183.475 158.292 185.269 161.024C187.065 163.756 189.55 167.547 190.793 169.448C192.036 171.349 197.731 179.874 203.45 188.394C209.168 196.915 214.141 204.333 214.5 204.882C216.744 208.31 218.63 210.939 218.934 211.064C219.127 211.144 219.285 211.436 219.285 211.716C219.285 211.996 219.677 212.467 220.155 212.764C220.634 213.061 221.025 213.483 221.025 213.703C221.025 214.334 223.724 218.48 224.135 218.48C224.339 218.48 224.505 218.212 224.505 217.885C224.505 217.558 224.799 217.048 225.157 216.752C226.068 216.001 225.971 215.133 224.94 214.808C224.462 214.657 224.07 214.255 224.07 213.915C224.07 213.459 224.299 213.524 224.94 214.16C225.877 215.091 226.932 215.348 226.417 214.519C226.216 214.195 226.323 214.102 226.717 214.262C227.055 214.398 227.675 214.646 228.094 214.812C228.813 215.1 229.233 214.399 228.529 214.088C228.349 214.009 226.554 211.222 224.539 207.896C222.525 204.57 218.904 198.835 216.494 195.152C211.322 187.249 208.903 183.539 204.495 176.752C198.936 168.192 173.422 129.982 169.692 124.628C166.595 120.185 164.91 118.549 164.91 119.984C164.91 120.222 164.237 120.416 163.414 120.416C162.59 120.416 161.795 120.222 161.648 119.984C161.5 119.746 161.021 119.552 160.584 119.552C160.148 119.552 159.469 119.066 159.078 118.472C158.463 117.541 157.515 117.001 157.515 117.582ZM21.4611 217.616C21.1621 218.091 21.0675 218.48 21.2513 218.48C21.435 218.48 21.8298 218.091 22.1289 217.616C22.4279 217.141 22.5225 216.752 22.3388 216.752C22.155 216.752 21.7602 217.141 21.4611 217.616Z" fill="url(#paint0_linear_111_2)"/>
<path fill-rule="evenodd" clip-rule="evenodd" d="M215.844 207.356C216.622 208.485 217.329 209.408 217.417 209.408C217.711 209.408 216.725 207.905 215.574 206.6C214.709 205.619 214.774 205.803 215.844 207.356ZM226.036 210.38C227.09 212.103 228.175 213.768 228.447 214.08C229.14 214.875 228.667 215.186 227.616 214.627C226.519 214.044 226.113 214.031 226.462 214.592C226.942 215.363 225.835 215.049 224.94 214.16C224.299 213.524 224.07 213.459 224.07 213.915C224.07 214.255 224.462 214.657 224.94 214.808C225.971 215.133 226.068 216.001 225.157 216.752C224.799 217.048 224.505 217.558 224.505 217.885C224.505 218.212 224.339 218.48 224.135 218.48C223.743 218.48 221.025 214.348 221.025 213.752C221.025 213.275 219.752 212.257 219.486 212.521C219.369 212.636 221.087 215.398 223.303 218.656C225.52 221.914 227.802 225.395 228.377 226.39C228.95 227.386 229.549 228.297 229.708 228.416C229.866 228.535 230.756 229.896 231.686 231.44C232.616 232.984 233.533 234.313 233.726 234.392C233.918 234.472 234.075 234.731 234.075 234.969C234.075 235.208 234.626 236.212 235.301 237.202C241.139 245.766 241.643 246.97 239.404 247.017C238.746 247.03 232.675 247.02 225.914 246.993C211.928 246.939 212.525 246.76 214.196 250.51C216.011 254.585 215.417 254.461 232.734 254.375C250.714 254.285 250.727 254.284 251.403 252.425C252.129 250.434 252.031 248.858 251.097 247.515C250.65 246.871 248.827 244.108 247.047 241.376C245.266 238.644 243.43 235.844 242.966 235.155C242.502 234.466 241.371 232.717 240.453 231.269C239.534 229.821 238.634 228.538 238.451 228.418C238.268 228.298 237.65 227.398 237.077 226.416C236.502 225.435 234.545 222.422 232.725 219.72C230.907 217.019 228.318 213.107 226.971 211.028C224.015 206.46 223.363 206.008 226.036 210.38ZM25.1554 210.812C23.0152 214.155 23.0119 214.16 23.4795 214.16C23.7177 214.16 24.0353 213.772 24.1864 213.298C24.3376 212.825 24.6943 212.184 24.977 211.875C25.6067 211.188 27.0465 208.544 26.791 208.544C26.6898 208.544 25.9536 209.565 25.1554 210.812ZM32.198 212.637C30.3873 215.275 29.4869 216.115 29.7338 214.935C29.7936 214.649 29.451 214.411 28.9725 214.405C28.394 214.399 28.1438 214.639 28.2265 215.125C28.3809 216.035 23.7003 215.988 23.1315 215.075C22.9032 214.709 21.521 216.442 18.9784 220.282C16.8828 223.449 13.6779 228.253 11.8585 230.958C10.038 233.663 8.34916 236.22 8.10338 236.641C7.60857 237.49 4.07528 242.907 1.91116 246.134C0.116783 248.811 -0.126817 249.863 0.567008 251.939C1.35871 254.307 1.54576 254.332 19.0077 254.358C35.5008 254.381 36.0739 254.31 37.2419 252.105C40.2216 246.477 41.2928 246.942 25.5284 247.017C9.79227 247.091 9.57695 247.016 13.0787 242.643C13.7573 241.796 14.6751 240.434 15.1178 239.618C15.5604 238.8 16.3629 237.52 16.9013 236.772C17.4396 236.023 17.88 235.197 17.88 234.937C17.88 234.677 18.0333 234.464 18.2215 234.464C18.4085 234.464 18.9327 233.832 19.3851 233.06C19.8375 232.288 23.1761 227.185 26.8029 221.72C33.2214 212.05 34.6123 209.84 34.2795 209.84C34.1903 209.84 33.254 211.099 32.198 212.637ZM217.929 210.572C218.199 211.093 218.614 211.639 218.852 211.785C219.597 212.243 219.325 211.573 218.362 210.578L217.437 209.624L217.929 210.572ZM22.1289 217.616C21.8298 218.091 21.4351 218.48 21.2513 218.48C21.0675 218.48 21.1621 218.091 21.4611 217.616C21.7602 217.141 22.155 216.752 22.3388 216.752C22.5225 216.752 22.4279 217.141 22.1289 217.616ZM49.3653 247.817C48.6193 248.269 47.7797 249.192 47.4992 249.867C47.2197 250.543 46.6846 251.65 46.3105 252.326C45.906 253.06 45.7907 253.715 46.0245 253.947C46.8249 254.742 205.986 254.221 206.14 253.424C206.307 252.567 204.702 249.88 203.036 248.225L201.793 246.992L126.258 246.993C52.7855 246.995 50.6855 247.018 49.3653 247.817Z" fill="#F9E697"/>
<path fill-rule="evenodd" clip-rule="evenodd" d="M100.82 1.53609C98.9488 3.58917 98.9063 3.48117 111.377 28.1505C124.074 53.2724 123.933 53.0305 125.936 53.01C128.199 52.9873 128.455 52.5574 140.555 28.4929C152.657 4.42509 152.909 3.80517 151.393 1.89033L150.492 0.752014H126.013C102.916 0.752014 101.495 0.796292 100.82 1.53609ZM150.374 2.07933C151.892 3.32889 150.006 8.46105 143.482 20.84C142.981 21.7904 142.434 22.8596 142.266 23.216C141.865 24.066 137.826 32.018 136.67 34.232C136.174 35.1824 135.116 37.3208 134.319 38.984C133.521 40.6472 132.66 42.3968 132.406 42.872C132.15 43.3472 131.284 45.0493 130.482 46.6552C127.838 51.9429 127.672 52.1406 125.89 52.1535C124.566 52.1622 123.323 50.351 120.116 43.736C118.619 40.6472 116.742 36.8564 115.945 35.312C115.149 33.7676 112.897 29.2964 110.941 25.376C108.984 21.4556 106.496 16.4984 105.412 14.36C98.1494 0.0467723 96.0082 1.37625 126.146 1.48641C143.463 1.54905 149.924 1.70673 150.374 2.07933ZM123.802 61.4793C122.927 61.9221 121.27 64.0141 118.763 67.8416C111.156 79.4581 106.315 86.9479 106.144 87.368C105.965 87.8065 98.9575 98.4898 97.4415 100.635C96.9869 101.278 96.615 101.919 96.615 102.057C96.615 102.195 95.8537 103.322 94.9228 104.558C93.993 105.796 91.7071 109.235 89.8431 112.202C87.9792 115.167 86.2881 117.792 86.0858 118.034C85.8824 118.274 85.1049 119.444 84.3567 120.632C83.6096 121.82 81.9848 124.347 80.7462 126.248C79.5086 128.149 78.3363 129.996 78.1416 130.352C77.0846 132.286 79.4705 129.155 82.67 124.412C86.076 119.36 87.045 118.332 87.045 119.768C87.045 120.214 87.4854 120.412 88.4587 120.402C89.9508 120.388 91.395 119.575 91.395 118.748C91.395 117.937 92.2628 118.192 92.2922 119.012C92.3139 119.606 92.402 119.566 92.7033 118.824C92.9131 118.306 93.521 117.649 94.0517 117.367L95.0174 116.854L94.1855 118.186C93.7266 118.918 92.4879 120.934 91.4309 122.667C90.3749 124.399 89.394 125.913 89.2526 126.032C88.6153 126.566 86.5676 130.023 86.7698 130.222C86.8938 130.346 87.7268 129.308 88.6208 127.916C89.9225 125.889 100.005 110.648 101.883 107.869C102.131 107.5 102.858 106.407 103.498 105.437C104.138 104.469 105.824 101.95 107.243 99.842C108.662 97.7328 110.913 94.3556 112.246 92.336C113.578 90.3164 114.905 88.4696 115.195 88.232C115.484 87.9944 115.876 87.4112 116.065 86.936C116.773 85.1508 125.362 72.3722 125.991 72.1681C126.382 72.0417 129.849 77.0432 137.576 88.88C138.738 90.662 139.89 92.4116 140.133 92.768C141.16 94.2703 153.451 112.77 159.583 122.045C163.234 127.565 166.328 132.08 166.461 132.08C166.747 132.08 166.61 131.84 164.247 128.192C163.247 126.648 161.313 123.66 159.949 121.554C157.583 117.9 156.965 115.855 158.984 118.364C159.509 119.017 160.264 119.552 160.659 119.552C161.055 119.552 161.5 119.746 161.647 119.984C161.795 120.222 162.59 120.416 163.414 120.416C164.237 120.416 164.91 120.222 164.91 119.984C164.91 118.086 168.889 122.921 174.42 131.54C175.221 132.787 175.96 133.808 176.063 133.808C176.354 133.808 175.713 132.767 171.284 126.032C169.017 122.587 165.704 117.532 163.92 114.8C159.238 107.626 153.34 98.6065 151.209 95.36C150.195 93.8156 148.116 90.6199 146.589 88.2579C145.062 85.896 142.442 81.8686 140.767 79.308C139.093 76.7473 135.873 71.8117 133.611 68.3406C128.657 60.7363 127.238 59.7427 123.802 61.4793ZM132.165 67.6731C134.145 70.6226 135.765 73.1638 135.765 73.3204C135.765 73.4781 136.347 74.3702 137.058 75.3033C137.769 76.2364 138.356 77.1447 138.363 77.3218C138.37 77.499 139.969 80.0262 141.919 82.9378C146.68 90.0507 146.777 90.2019 147.508 91.688C148.132 92.9592 150.07 95.7974 150.603 96.224C150.932 96.4875 151.599 98.3592 151.679 99.248C151.832 100.918 152.439 101.904 153.192 101.707C154.081 101.477 155.177 103.539 154.751 104.64C154.187 106.098 150.769 105.233 150.153 103.476C149.847 102.604 149.487 102.255 149.061 102.418C148.641 102.578 148.504 102.455 148.658 102.055C149.043 101.058 148.404 100.419 147.646 101.043C147.088 101.503 147.013 101.425 147.141 100.523C147.258 99.7049 147.116 99.4932 146.517 99.5936C145.884 99.7005 145.785 99.5018 145.977 98.5136C146.105 97.8483 146.095 97.547 145.954 97.844C145.493 98.8149 145.038 98.4229 143.406 95.6527C142.522 94.1504 141.316 92.3641 140.726 91.6837C140.138 91.0022 139.542 89.9956 139.403 89.447C139.265 88.8973 138.995 88.448 138.806 88.448C138.615 88.448 137.732 87.3302 136.844 85.964C135.955 84.5978 134.663 82.6711 133.974 81.6818C133.284 80.6925 132.72 79.7475 132.72 79.5812C132.72 79.416 131.974 78.3781 131.06 77.2765C130.148 76.1738 128.862 74.3367 128.2 73.1941C126.614 70.453 125.727 70.5934 123.298 73.976C122.275 75.4016 121.256 76.9644 121.034 77.4493C120.812 77.9342 120.317 78.5908 119.933 78.9062C119.549 79.2226 119.235 79.673 119.235 79.9063C119.235 80.1406 118.674 81.0403 117.988 81.9054C117.303 82.7715 116.314 84.3159 115.793 85.3365C115.272 86.3582 114.552 87.3054 114.194 87.4425C113.836 87.5786 113.156 88.4448 112.683 89.366C111.203 92.2453 108.044 96.8191 106.65 98.0967C105.915 98.7706 105.315 99.5915 105.315 99.923C105.315 100.253 104.846 100.829 104.273 101.202C103.7 101.575 103.124 102.285 102.994 102.781C102.837 103.378 102.529 103.593 102.079 103.422C101.614 103.245 101.4 103.416 101.4 103.963C101.4 104.853 99.9764 105.401 98.8563 104.943C97.7753 104.5 97.6601 101.853 98.7345 102.133C99.2881 102.276 99.6143 102.06 99.7774 101.443C99.9068 100.948 99.8362 100.652 99.6198 100.785C98.8792 101.238 99.2228 100.153 100.476 98.0795C103.26 93.4679 107.512 86.8258 111.269 81.2196C112.421 79.5013 113.659 77.5573 114.022 76.8996C114.384 76.2418 115.46 74.5452 116.414 73.1282C117.368 71.7112 118.343 70.2295 118.582 69.8342C122.677 63.0766 123.745 62.0301 126.386 62.1846L128.566 62.312L132.165 67.6731ZM96.2452 106.93C95.9701 107.022 95.745 107.372 95.745 107.708C95.745 108.045 95.5558 108.32 95.3241 108.32C95.0914 108.32 95.0153 108.028 95.1523 107.672C95.2904 107.316 95.1751 107.024 94.8956 107.024C94.6172 107.024 94.5118 106.826 94.6618 106.584C94.8119 106.344 95.1034 106.25 95.31 106.376C95.5166 106.502 95.832 106.37 96.0125 106.08C96.2594 105.683 96.3888 105.702 96.5421 106.16C96.6541 106.493 96.5204 106.839 96.2452 106.93ZM88.785 116.718C88.785 117.367 88.0042 118.056 87.6583 117.713C87.3549 117.411 87.9552 116.096 88.3967 116.096C88.6099 116.096 88.785 116.376 88.785 116.718ZM122.79 121.637C122.151 122.309 120.844 124.178 119.887 125.79C118.93 127.404 117.842 129.041 117.47 129.43C117.097 129.818 116.128 131.205 115.316 132.512C113.057 136.148 106.785 145.759 104.462 149.144C103.321 150.807 100.787 154.663 98.8313 157.712C96.876 160.76 95.0794 163.482 94.838 163.76C94.018 164.704 86.61 176.1 86.61 176.419C86.61 176.593 86.2315 177.138 85.7693 177.628C85.3061 178.118 84.6699 179.008 84.3556 179.605C84.0402 180.203 83.2463 181.466 82.5917 182.413C81.937 183.361 79.8055 186.566 77.8556 189.536C75.9057 192.506 73.0924 196.783 71.6036 199.04C70.1148 201.297 67.9398 204.664 66.7696 206.522C65.5995 208.38 64.0085 210.713 63.2331 211.706C62.4577 212.699 61.8215 213.675 61.8193 213.875C61.8172 214.075 61.0646 215.338 60.1478 216.683C57.5281 220.524 56.0121 222.796 55.0942 224.258C54.6288 225 52.9649 227.527 51.3967 229.874C48.6008 234.059 45.9908 238.022 42.3835 243.56C41.3863 245.091 40.2857 246.636 39.9377 246.992C39.5897 247.348 39.1569 248.126 38.9753 248.72C38.7937 249.314 38.2804 250.316 37.8334 250.947C37.3854 251.578 37.02 252.311 37.02 252.576C37.02 252.841 36.5306 253.28 35.9325 253.551C35.3344 253.821 34.8439 254.255 34.8428 254.513C34.8406 254.995 31.8696 259.598 28.1982 264.81C27.0683 266.413 26.145 267.831 26.145 267.961C26.145 268.092 25.313 269.429 24.2962 270.932C15.6691 283.693 16.3651 284.576 35.0309 284.576H46.8314L48.2332 283.305C50.0047 281.697 50.0689 280.092 48.4387 278.153L47.2425 276.731L39.3396 276.657C31.2182 276.582 30.3667 276.424 31.2671 275.159C31.5553 274.754 32.1697 273.744 32.6319 272.912C33.0941 272.08 33.7792 271.011 34.1544 270.536C35.5018 268.829 37.89 265.149 37.89 264.782C37.89 264.574 38.2815 264.054 38.76 263.624C39.2385 263.194 39.63 262.695 39.63 262.515C39.63 262.236 40.8795 260.23 43.2133 256.76C43.5156 256.311 44.1736 255.437 44.6749 254.816C45.596 253.678 46.4269 252.238 47.6111 249.727C47.9657 248.974 48.6649 248.141 49.163 247.875C49.6622 247.611 50.07 247.14 50.07 246.829C50.07 246.518 51.7339 243.79 53.7675 240.766C55.8011 237.742 57.465 235.183 57.465 235.082C57.465 234.979 57.7728 234.556 58.149 234.14C58.5264 233.724 60.0228 231.537 61.4757 229.28C65.8235 222.524 73.6307 210.637 78.7811 202.928C80.7647 199.958 82.8005 196.837 83.3029 195.992C83.8064 195.148 86.7622 190.618 89.8725 185.928C106.467 160.902 108.795 157.376 108.795 157.27C108.795 157.206 110.067 155.277 111.622 152.983C113.178 150.689 114.45 148.742 114.45 148.655C114.45 148.568 116.799 144.974 119.67 140.667C122.541 136.36 124.89 132.689 124.89 132.511C124.89 132.332 125.169 131.956 125.511 131.674C126.062 131.219 130.545 136.782 130.545 137.923C130.545 138.069 131.719 139.829 133.155 141.835C134.59 143.84 135.765 145.558 135.765 145.652C135.765 145.747 137.184 147.962 138.919 150.575C146.195 161.537 148.247 164.675 149.795 167.208C150.692 168.678 151.622 169.945 151.861 170.024C152.099 170.104 152.295 170.352 152.295 170.577C152.295 170.927 153.732 173.159 157.961 179.384C160.143 182.596 162.735 186.595 162.735 186.751C162.735 186.846 163.991 188.762 165.526 191.01C167.061 193.259 168.578 195.588 168.897 196.188C169.216 196.788 171.398 200.153 173.745 203.667C177.691 209.575 181.314 215.02 186.225 222.428C187.302 224.053 189.357 227.261 190.792 229.559C192.228 231.857 193.6 233.949 193.842 234.208C194.662 235.087 201.052 244.872 201.572 246.044C201.856 246.684 202.581 247.715 203.183 248.333C204.428 249.612 206.235 252.445 206.235 253.116C206.235 253.501 206.834 254.346 208.853 256.803C209.089 257.091 209.838 258.257 210.518 259.395C211.197 260.533 213.121 263.505 214.794 266C219.202 272.579 221.025 275.471 221.025 275.891C221.025 276.729 215.732 276.805 158.211 276.797C100.573 276.788 98.0994 276.821 97.0717 277.583C94.8587 279.224 95.2219 283.672 97.6231 284.311C100.701 285.131 229.524 284.563 230.909 283.724C233.408 282.211 233.38 278.977 230.837 275.537C229.986 274.386 229.29 273.304 229.29 273.132C229.29 272.961 228.73 272.112 228.045 271.247C226.889 269.785 226.345 268.92 224.436 265.503C224.04 264.794 223.429 263.885 223.08 263.486C222.111 262.379 219.285 258.268 219.285 257.967C219.285 257.82 218.796 257.123 218.197 256.417C217.599 255.711 217.11 254.879 217.11 254.568C217.11 254.257 216.649 253.703 216.086 253.337C215.522 252.971 214.605 251.539 214.048 250.155C213.491 248.772 212.608 247.237 212.087 246.744C211.567 246.251 210.781 245.279 210.341 244.584C209.901 243.889 207.496 240.21 204.997 236.408C202.498 232.606 199.763 228.427 198.92 227.12C195.996 222.588 189.989 213.487 186.659 208.544C184.818 205.812 183.232 203.382 183.136 203.144C183.04 202.906 181.795 200.962 180.369 198.824C178.943 196.686 177.475 194.418 177.107 193.784C176.739 193.149 175.287 190.913 173.882 188.816C169.405 182.134 162.486 171.656 161.617 170.243C161.155 169.492 159.016 166.325 156.862 163.202C154.709 160.081 152.447 156.612 151.836 155.495C151.225 154.378 148.673 150.451 146.166 146.768C143.658 143.085 140.347 138.128 138.806 135.752C137.266 133.376 135.805 131.127 135.559 130.755C135.314 130.382 134.134 128.542 132.937 126.666C128.76 120.115 125.689 118.593 122.79 121.637ZM128.268 121.807C129.027 122.432 132.72 127.712 132.72 128.171C132.72 128.376 133.356 129.322 134.134 130.275C135.331 131.743 137.119 134.414 139.038 137.603C139.283 138.01 141.609 141.552 144.207 145.472C146.805 149.392 150.218 154.544 151.793 156.92C153.366 159.296 154.809 161.305 154.997 161.384C155.186 161.464 155.34 161.711 155.34 161.933C155.34 162.337 157.485 165.797 157.989 166.208C158.135 166.327 158.51 166.91 158.821 167.504C159.133 168.098 159.756 169.07 160.205 169.664C160.656 170.258 162.026 172.299 163.25 174.2C164.476 176.101 166.378 178.965 167.478 180.564C168.577 182.164 170.065 184.438 170.782 185.62C171.5 186.8 173.262 189.537 174.697 191.701C176.133 193.866 178.989 198.2 181.043 201.334C183.097 204.468 187.1 210.531 189.938 214.808C192.776 219.085 195.695 223.6 196.425 224.842C197.848 227.263 205.778 239.153 207.164 240.944C207.624 241.538 208.363 242.774 208.808 243.688C209.253 244.604 210.133 246.062 210.763 246.928C211.394 247.796 212.426 249.282 213.058 250.232C216.993 256.158 219.972 260.56 221.883 263.268C223.086 264.973 224.07 266.498 224.07 266.657C224.07 266.816 225.147 268.498 226.462 270.396C227.778 272.293 228.855 274.017 228.855 274.227C228.855 274.438 229.461 275.294 230.2 276.133C232.22 278.416 232.395 280.696 230.683 282.395L229.357 283.712H164.346C128.589 283.712 98.7411 283.594 98.0168 283.451C95.9364 283.037 95.6743 279.098 97.6514 277.973C98.4104 277.54 166.685 277.129 220.93 277.23C223.209 277.234 221.309 273.652 211.841 260.098C211.15 259.109 210.585 258.152 210.585 257.971C210.585 257.791 210.26 257.288 209.863 256.851C209.104 256.019 208.782 255.515 207.26 252.774C206.747 251.851 205.915 250.726 205.412 250.273C204.907 249.821 204.495 249.289 204.495 249.094C204.495 248.897 203.763 247.615 202.868 246.245C201.974 244.873 201.044 243.443 200.802 243.066C199.665 241.293 191.708 229.361 190.972 228.325C190.514 227.682 190.14 227.034 190.14 226.885C190.14 226.496 185.637 220.02 185.246 219.848C185.067 219.768 184.907 219.477 184.891 219.2C184.875 218.923 184.188 217.821 183.365 216.752C182.542 215.683 181.654 214.273 181.393 213.62C181.133 212.967 180.774 212.432 180.596 212.432C180.419 212.432 179.739 211.457 179.086 210.264C178.432 209.072 177.226 207.223 176.406 206.156C175.586 205.089 174.915 204.105 174.915 203.969C174.915 203.709 172.186 199.538 164.399 187.895C161.81 184.024 159.69 180.782 159.69 180.691C159.69 180.529 154.067 171.971 152.303 169.448C151.803 168.735 149.591 165.395 147.387 162.024C141.891 153.623 137.736 147.318 136.338 145.256C134.531 142.591 130.379 136.321 129.892 135.522C129.653 135.129 128.87 133.808 128.152 132.587C126.629 129.992 125.652 129.763 124.62 131.756C124.221 132.528 123.52 133.646 123.062 134.24C122.203 135.355 114.015 147.687 114.015 147.867C114.015 147.923 112.4 150.41 110.426 153.393C108.452 156.377 106.041 160.043 105.069 161.541C104.096 163.038 101.649 166.73 99.6317 169.743C97.6133 172.756 94.5922 177.365 92.9175 179.987C91.2427 182.607 88.2576 187.091 86.2837 189.951C84.3099 192.812 82.695 195.266 82.695 195.407C82.695 195.547 81.9392 196.762 81.0148 198.107C79.2422 200.685 74.8693 207.312 69.7091 215.24C68.0083 217.854 66.0062 220.867 65.2602 221.936C63.1776 224.92 49.8862 244.993 49.6817 245.462C49.5828 245.69 48.579 247.245 47.4513 248.918C46.3235 250.591 45.2643 252.397 45.0968 252.932C44.9283 253.467 44.6336 253.904 44.4411 253.904C44.2486 253.904 43.4297 254.98 42.6217 256.294C41.8137 257.608 38.549 262.596 35.3681 267.376C32.186 272.157 29.6837 276.33 29.8077 276.65C30.0632 277.311 30.0404 277.31 39.2494 277.235C47.7634 277.166 50.7116 278.977 47.8885 282.542L46.9619 283.712H35.0516C22.4333 283.712 21.3948 283.568 20.5378 281.7C19.8146 280.122 19.9517 278.905 21.0348 277.28C21.5731 276.474 22.404 275.181 22.8825 274.408C23.361 273.635 24.7117 271.573 25.884 269.825C37.6203 252.329 45.919 239.75 48.3963 235.702C49.3979 234.063 52.245 229.805 57.0235 222.8C60.3403 217.938 61.38 216.317 61.3843 216.007C61.3876 215.822 62.2685 214.51 63.3418 213.089C64.4163 211.667 65.295 210.362 65.295 210.186C65.295 210.01 66.2455 208.45 67.408 206.721C69.8146 203.14 80.7049 186.637 83.0234 183.056C83.8706 181.749 84.9167 180.194 85.3496 179.6C85.7813 179.006 87.3397 176.576 88.8111 174.2C92.0062 169.041 93.3188 167.089 94.2105 166.171C94.5759 165.795 94.875 165.376 94.875 165.24C94.875 165.003 98.8922 158.869 103.577 151.952C104.784 150.17 106.326 147.837 107.004 146.768C108.137 144.982 109.755 142.539 114.124 136.024C115.02 134.687 115.931 133.192 116.146 132.703C116.363 132.215 117.007 131.243 117.577 130.543C118.147 129.844 119.667 127.658 120.952 125.685C123.949 121.087 126.045 119.975 128.268 121.807ZM85.5725 131.864C85.1864 132.458 84.5535 133.479 84.1664 134.132L83.4617 135.32L84.3371 134.268C85.3702 133.026 86.7416 130.784 86.4675 130.784C86.3609 130.784 85.9586 131.27 85.5725 131.864ZM76.1961 133.071C75.8688 133.595 75.3163 134.461 74.9661 134.996C74.6159 135.531 74.4245 135.968 74.5398 135.968C74.8465 135.968 77.1335 132.461 76.9475 132.275C76.8605 132.19 76.5223 132.548 76.1961 133.071ZM57.7499 266.357C56.6994 267.51 56.6515 294.094 57.6977 294.957C59.2169 296.209 61.3343 295.386 76.17 287.779C76.7681 287.473 78.1384 286.815 79.215 286.317C86.5306 282.939 88.1912 281.347 86.7122 279.128C86.1532 278.291 60.6633 265.568 59.5432 265.568C58.9527 265.568 58.1458 265.923 57.7499 266.357ZM63.6224 268.189C65.6191 269.156 67.5461 270.127 67.905 270.346C68.2639 270.566 70.515 271.686 72.9075 272.836C89.4462 280.788 89.1167 280.287 80.6309 284.563C77.5794 286.101 74.5931 287.666 73.995 288.042C71.6471 289.517 60.4708 294.512 59.5193 294.512C57.5096 294.512 57.465 294.217 57.465 280.914C57.465 264.766 57.291 265.125 63.6224 268.189Z" fill="url(#paint1_linear_111_2)"/>
<defs>
<linearGradient id="paint0_linear_111_2" x1="125.024" y1="116.115" x2="125.024" y2="218.48" gradientUnits="userSpaceOnUse">
<stop stop-color="#6AEDDA"/>
<stop offset="0.0001" stop-color="#6AEDDA"/>
<stop offset="0.354167" stop-color="#E287BB"/>
<stop offset="0.473958" stop-color="#E287BB"/>
<stop offset="0.857292" stop-color="#E287BB"/>
<stop offset="1" stop-color="#F9E697"/>
</linearGradient>
<linearGradient id="paint1_linear_111_2" x1="125.867" y1="0.752014" x2="125.867" y2="295.435" gradientUnits="userSpaceOnUse">
<stop stop-color="#6AEDDA"/>
<stop offset="1" stop-color="#6AEDDA" stop-opacity="0"/>
</linearGradient>
</defs>
</svg>
