<svg width="475" height="385" viewBox="0 0 475 385" fill="none" xmlns="http://www.w3.org/2000/svg">
<rect width="475" height="385" fill="#E5E5E5"/>
<rect width="475" height="385" fill="white"/>
<path d="M425.106 96.7973C425.393 100.893 425.393 104.988 425.393 109.121C425.393 235.058 328.095 380.301 150.18 380.301V380.225C97.624 380.301 46.1593 365.467 1.91532 337.498C9.55746 338.404 17.2379 338.857 24.9375 338.875C68.4919 338.913 110.801 324.513 145.067 297.998C103.676 297.224 67.381 270.632 54.7016 231.812C69.2006 234.567 84.1401 234.001 98.371 230.17C53.246 221.186 20.7813 182.12 20.7813 136.75C20.7813 136.335 20.7813 135.939 20.7813 135.543C34.2268 142.922 49.2813 147.017 64.6804 147.47C22.1794 119.482 9.07863 63.7703 34.744 20.2125C83.8528 79.7554 156.309 115.953 234.091 119.784C226.295 86.6816 236.945 51.9939 262.074 28.724C301.031 -7.3603 362.302 -5.51079 398.923 32.8571C420.586 28.6485 441.348 20.8164 460.348 9.71936C453.127 31.7814 438.015 50.5218 417.828 62.4304C437 60.2034 455.732 55.1456 473.372 47.4267C460.386 66.6012 444.029 83.3034 425.106 96.7973Z" fill="#292524"/>
</svg>
